HIERARCHY
ROOT Hips
{
	OFFSET 0.000000 0.000000 0.000000
	CHANNELS 6 Xposition Yposition Zposition Zrotation Yrotation Xrotation 
	JOINT LHipJoint
	{
		OFFSET 0.000000 0.000000 0.000000
		CHANNELS 3 Zrotation Yrotation Xrotation
		JOINT LeftUpLeg
		{
			OFFSET 1.363060 -1.794630 0.839290
			CHANNELS 3 Zrotation Yrotation Xrotation
			JOINT LeftLeg
			{
				OFFSET 2.448110 -6.726130 0.000000
				CHANNELS 3 Zrotation Yrotation Xrotation
				JOINT LeftFoot
				{
					OFFSET 2.562200 -7.039590 0.000000
					CHANNELS 3 Zrotation Yrotation Xrotation
					JOINT LeftToeBase
					{
						OFFSET 0.157640 -0.433110 2.322550
						CHANNELS 3 Zrotation Yrotation Xrotation
						End Site
						{
							OFFSET 0.000000 0.000000 0.000000
						}
					}
				}
			}
		}
	}
	JOINT RHipJoint
	{
		OFFSET 0.000000 0.000000 0.000000
		CHANNELS 3 Zrotation Yrotation Xrotation
		JOINT RightUpLeg
		{
			OFFSET -1.305520 -1.794630 0.839290
			CHANNELS 3 Zrotation Yrotation Xrotation
			JOINT RightLeg
			{
				OFFSET -2.542530 -6.985550 0.000000
				CHANNELS 3 Zrotation Yrotation Xrotation
				JOINT RightFoot
				{
					OFFSET -2.568260 -7.056230 0.000000
					CHANNELS 3 Zrotation Yrotation Xrotation
					JOINT RightToeBase
					{
						OFFSET -0.164730 -0.452590 2.363150
						CHANNELS 3 Zrotation Yrotation Xrotation
						End Site
						{
							OFFSET 0.000000 0.000000 0.000000
						}
					}
				}
			}
		}
	}
}
MOTION
Frames: 11
Frame Time: 0.008333
21.818372 16.835935 1.263750 173.733272 -89.523019 -140.698201 -9.490642 -0.184146 5.265290 -2.364359 -17.522968 -39.881367 -0.613443 -0.702365 23.718622 4.368565 16.974137 -21.798690 -3.872200 0.000000 -30.881600 6.908571 -0.293243 4.843703 4.958568 16.270141 -38.708962 1.776626 0.667140 22.101360 -3.546983 -8.490835 -22.203918 2.160100 0.000000 -50.287300
21.795735 16.762808 1.271452 175.844795 -89.336133 -142.012928 -9.388190 -0.231296 5.330712 -2.234139 -17.932181 -41.917988 -0.582119 -0.550762 26.227166 4.529539 17.193286 -23.149581 -4.333599 0.000000 -29.806200 6.929448 -0.180102 4.955697 4.514270 16.768944 -41.006202 1.662116 0.410415 25.077579 -3.665393 -8.433055 -23.639005 2.436600 -0.000000 -49.567500
21.773060 16.677767 1.277747 -179.355792 -89.128660 -146.010861 -9.245633 -0.229513 5.395139 -2.150613 -18.248663 -44.077639 -0.559175 -0.373001 28.903814 4.685557 17.367119 -24.543803 -4.804299 0.000000 -28.746000 7.012321 -0.014712 5.068800 4.077941 17.191928 -43.408167 1.540430 0.143933 28.239994 -3.777156 -8.358081 -25.124465 2.718400 0.000000 -48.653599
21.750470 16.580191 1.282548 -170.607274 -88.950409 -153.950919 -9.021248 -0.172038 5.457660 -2.081796 -18.501028 -46.351555 -0.535451 -0.177316 31.739302 4.841823 17.522600 -25.954959 -5.280900 0.000000 -27.736399 7.197875 0.211324 5.195115 3.665096 17.550898 -45.904053 1.409959 -0.136102 31.547491 -3.886536 -8.311247 -26.633145 3.005300 0.000001 -47.546000
21.727874 16.469593 1.285950 -157.444824 -88.953591 -166.293176 -8.697243 -0.116310 5.512635 -2.007382 -18.754653 -48.717102 -0.496894 0.006966 34.735660 4.999840 17.666403 -27.348470 -5.760500 -0.000000 -26.821700 7.502798 0.443699 5.350612 3.273498 17.823019 -48.498502 1.274448 -0.454375 34.951693 -3.999223 -8.349123 -28.148308 3.300600 -0.000000 -46.261400
21.705559 16.345906 1.288101 -142.148006 -89.244351 179.235911 -8.399566 -0.174195 5.571425 -1.964509 -19.095816 -51.142968 -0.433979 0.164349 37.870699 5.155715 17.817433 -28.687251 -6.241000 0.000000 -26.048500 7.803804 0.576528 5.523274 2.841200 17.954053 -51.188408 1.134934 -0.823056 38.428695 -4.121059 -8.498612 -29.652992 3.607900 0.000000 -44.854000
21.683899 16.209241 1.289288 -128.978645 -89.650728 166.895350 -8.245299 -0.320246 5.658641 -1.975892 -19.509098 -53.632319 -0.353415 0.335221 41.093471 5.306904 18.021031 -29.960628 -6.719900 0.000000 -25.459000 7.985097 0.639968 5.682615 2.326536 17.984250 -53.933505 0.977048 -1.197741 41.992308 -4.253348 -8.739377 -31.109277 3.931800 0.000000 -43.394300
21.663525 16.060266 1.289858 59.819408 -89.986946 -21.085229 -8.181913 -0.462355 5.769675 -2.000027 -19.930428 -56.176766 -0.258672 0.543845 44.379077 5.452385 18.288078 -31.167625 -7.193800 0.000000 -25.086900 8.095738 0.728437 5.824001 1.769702 17.989885 -56.678840 0.794038 -1.548638 45.624192 -4.390950 -9.059596 -32.475331 4.272800 0.000000 -42.008900
21.644874 15.899801 1.290220 64.709175 -89.685576 -25.183549 -8.149384 -0.577774 5.886762 -2.007318 -20.335831 -58.743947 -0.147822 0.782803 47.722192 5.588772 18.598039 -32.305592 -7.658801 -0.000000 -24.950500 8.192973 0.866847 5.953033 1.206425 17.997886 -59.388006 0.588542 -1.878411 49.293324 -4.527947 -9.458697 -33.730593 4.629100 0.000000 -40.824600
21.628438 15.729094 1.290734 66.831565 -89.427007 -26.562124 -8.130323 -0.677680 5.994335 -1.995590 -20.716765 -61.291635 -0.020957 1.042514 51.116157 5.710710 18.923615 -33.377079 -8.111100 -0.000000 -25.056201 8.293104 1.046068 6.067634 0.656198 18.007120 -62.025002 0.365343 -2.194300 52.973528 -4.657421 -9.921838 -34.865725 4.994900 -0.000000 -39.974900
21.614458 15.549489 1.291647 67.138813 -89.194382 -26.191414 -8.124313 -0.775110 6.080133 -1.976732 -21.064808 -63.776443 0.119590 1.317202 54.548793 5.813561 19.240532 -34.392546 -8.547900 -0.000001 -25.389000 8.396512 1.253517 6.161624 0.130830 18.011550 -64.553789 0.128589 -2.500862 56.646364 -4.772789 -10.424263 -35.881785 5.362200 0.000000 -39.561800
